<mxfile host="app.diagrams.net" agent="Mozilla/5.0 (Macintosh; Intel Mac OS X 10_15_7) AppleWebKit/537.36 (KHTML, like Gecko) Chrome/141.0.0.0 Safari/537.36" version="28.2.5">
  <diagram name="USDM Supplement - Estimand Framework (Reorganized)" id="usdm-supplement-reorganized">
    <mxGraphModel dx="1324" dy="582" grid="1" gridSize="10" guides="1" tooltips="1" connect="1" arrows="1" fold="1" page="1" pageScale="1" pageWidth="2400" pageHeight="1600" math="0" shadow="0">
      <root>
        <mxCell id="0" />
        <mxCell id="1" parent="0" />
        <mxCell id="title-1" value="&lt;font style=&quot;font-size: 20px;&quot;&gt;&lt;b&gt;USDM v4.0 SUPPLEMENT: Estimand &amp;amp; Analysis Framework (ICH E9 R1) - REORGANIZED&lt;/b&gt;&lt;/font&gt;" style="text;html=1;strokeColor=none;fillColor=none;align=center;verticalAlign=middle;whiteSpace=wrap;rounded=0;" parent="1" vertex="1">
          <mxGeometry x="700" width="1200" height="40" as="geometry" />
        </mxCell>
        <mxCell id="legend-box" value="" style="rounded=1;whiteSpace=wrap;html=1;fillColor=#f5f5f5;strokeColor=#999999;" parent="1" vertex="1">
          <mxGeometry x="1990" y="60" width="320" height="150" as="geometry" />
        </mxCell>
        <mxCell id="legend-title" value="&lt;b&gt;LEGEND&lt;/b&gt;" style="text;html=1;strokeColor=none;fillColor=none;align=left;verticalAlign=top;whiteSpace=wrap;rounded=0;" parent="1" vertex="1">
          <mxGeometry x="2000" y="70" width="100" height="20" as="geometry" />
        </mxCell>
        <mxCell id="legend-1" value="Mandatory relationship" style="text;html=1;strokeColor=none;fillColor=none;align=left;verticalAlign=middle;whiteSpace=wrap;rounded=0;fontSize=10;" parent="1" vertex="1">
          <mxGeometry x="2080" y="95" width="150" height="20" as="geometry" />
        </mxCell>
        <mxCell id="legend-line-1" value="" style="endArrow=classic;html=1;strokeWidth=2;strokeColor=#333333;" parent="1" edge="1">
          <mxGeometry width="50" height="50" relative="1" as="geometry">
            <mxPoint x="2010" y="105" as="sourcePoint" />
            <mxPoint x="2070" y="105" as="targetPoint" />
          </mxGeometry>
        </mxCell>
        <mxCell id="legend-2" value="Optional/Informational" style="text;html=1;strokeColor=none;fillColor=none;align=left;verticalAlign=middle;whiteSpace=wrap;rounded=0;fontSize=10;" parent="1" vertex="1">
          <mxGeometry x="2080" y="125" width="150" height="20" as="geometry" />
        </mxCell>
        <mxCell id="legend-line-2" value="" style="endArrow=classic;html=1;strokeWidth=2;strokeColor=#333333;dashed=1;dashPattern=8 8;" parent="1" edge="1">
          <mxGeometry width="50" height="50" relative="1" as="geometry">
            <mxPoint x="2010" y="135" as="sourcePoint" />
            <mxPoint x="2070" y="135" as="targetPoint" />
          </mxGeometry>
        </mxCell>
        <mxCell id="legend-3" value="Cross-reference/Informs" style="text;html=1;strokeColor=none;fillColor=none;align=left;verticalAlign=middle;whiteSpace=wrap;rounded=0;fontSize=10;" parent="1" vertex="1">
          <mxGeometry x="2080" y="155" width="150" height="20" as="geometry" />
        </mxCell>
        <mxCell id="legend-line-3" value="" style="endArrow=classic;html=1;strokeWidth=1;strokeColor=#666666;dashed=1;dashPattern=2 4;" parent="1" edge="1">
          <mxGeometry width="50" height="50" relative="1" as="geometry">
            <mxPoint x="2010" y="165" as="sourcePoint" />
            <mxPoint x="2070" y="165" as="targetPoint" />
          </mxGeometry>
        </mxCell>
        <mxCell id="core-header" value="&lt;b&gt;USDM CORE REFERENCES&lt;/b&gt;" style="rounded=0;whiteSpace=wrap;html=1;fillColor=#E3F2FD;strokeColor=#1976D2;strokeWidth=2;fontSize=13;fontStyle=1" parent="1" vertex="1">
          <mxGeometry x="320" y="80" width="300" height="35" as="geometry" />
        </mxCell>
        <mxCell id="estimand" value="&lt;p style=&quot;margin:0px;margin-top:4px;text-align:center;&quot;&gt;&lt;i&gt;&amp;lt;&amp;lt;USDM Core&amp;gt;&amp;gt;&lt;/i&gt;&lt;/p&gt;&lt;p style=&quot;margin:0px;margin-top:4px;text-align:center;&quot;&gt;&lt;b&gt;Estimand&lt;/b&gt;&lt;/p&gt;&lt;hr size=&quot;1&quot;/&gt;&lt;p style=&quot;margin:0px;margin-left:4px;&quot;&gt;+ id: String&lt;/p&gt;&lt;p style=&quot;margin:0px;margin-left:4px;&quot;&gt;+ name: String&lt;/p&gt;&lt;p style=&quot;margin:0px;margin-left:4px;&quot;&gt;+ estimandRole: Code&lt;/p&gt;&lt;p style=&quot;margin:0px;margin-left:4px;&quot;&gt;+ clinicalQuestion: String&lt;/p&gt;" style="verticalAlign=top;align=left;overflow=fill;fontSize=11;fontFamily=Helvetica;html=1;fillColor=#E3F2FD;strokeColor=#1976D2;strokeWidth=2;" parent="1" vertex="1">
          <mxGeometry x="320" y="200" width="300" height="120" as="geometry" />
        </mxCell>
        <mxCell id="endpoint" value="&lt;p style=&quot;margin:0px;margin-top:4px;text-align:center;&quot;&gt;&lt;i&gt;&amp;lt;&amp;lt;USDM Core&amp;gt;&amp;gt;&lt;/i&gt;&lt;/p&gt;&lt;p style=&quot;margin:0px;margin-top:4px;text-align:center;&quot;&gt;&lt;b&gt;Endpoint&lt;/b&gt;&lt;/p&gt;&lt;hr size=&quot;1&quot;/&gt;&lt;p style=&quot;margin:0px;margin-left:4px;&quot;&gt;+ id: String&lt;/p&gt;&lt;p style=&quot;margin:0px;margin-left:4px;&quot;&gt;+ name: String&lt;/p&gt;&lt;p style=&quot;margin:0px;margin-left:4px;&quot;&gt;+ measure: String&lt;/p&gt;&lt;p style=&quot;margin:0px;margin-left:4px;&quot;&gt;+ unit: String&lt;/p&gt;&lt;p style=&quot;margin:0px;margin-left:4px;&quot;&gt;+ timeframe: String&lt;/p&gt;&lt;p style=&quot;margin:0px;margin-left:4px;&quot;&gt;+ direction: Code&lt;/p&gt;" style="verticalAlign=top;align=left;overflow=fill;fontSize=11;fontFamily=Helvetica;html=1;fillColor=#E3F2FD;strokeColor=#1976D2;strokeWidth=2;" parent="1" vertex="1">
          <mxGeometry x="790" y="427.5" width="230" height="132.5" as="geometry" />
        </mxCell>
        <mxCell id="sensitivity" value="&lt;p style=&quot;margin:0px;margin-top:4px;text-align:center;&quot;&gt;&lt;i&gt;&amp;lt;&amp;lt;USDM Core&amp;gt;&amp;gt;&lt;/i&gt;&lt;/p&gt;&lt;p style=&quot;margin:0px;margin-top:4px;text-align:center;&quot;&gt;&lt;b&gt;SensitivityAnalysis&lt;/b&gt;&lt;/p&gt;&lt;hr size=&quot;1&quot;/&gt;&lt;p style=&quot;margin:0px;margin-left:4px;&quot;&gt;+ id: String&lt;/p&gt;&lt;p style=&quot;margin:0px;margin-left:4px;&quot;&gt;+ name: String&lt;/p&gt;&lt;p style=&quot;margin:0px;margin-left:4px;&quot;&gt;+ sensitivityType: Code&lt;/p&gt;&lt;p style=&quot;margin:0px;margin-left:4px;&quot;&gt;+ purpose: String&lt;/p&gt;" style="verticalAlign=top;align=left;overflow=fill;fontSize=11;fontFamily=Helvetica;html=1;fillColor=#E3F2FD;strokeColor=#1976D2;strokeWidth=2;" parent="1" vertex="1">
          <mxGeometry x="320" y="581.5" width="300" height="110" as="geometry" />
        </mxCell>
        <mxCell id="other-core" value="&lt;p style=&quot;margin:0px;margin-top:4px;text-align:center;&quot;&gt;&lt;i&gt;&amp;lt;&amp;lt;USDM Core&amp;gt;&amp;gt;&lt;/i&gt;&lt;/p&gt;&lt;p style=&quot;margin:0px;margin-top:4px;text-align:center;&quot;&gt;&lt;b&gt;BiomedicalConcept&lt;/b&gt;&lt;/p&gt;&lt;p style=&quot;margin:0px;margin-top:4px;text-align:center;&quot;&gt;&lt;b&gt;Activity&lt;/b&gt;&lt;/p&gt;&lt;hr size=&quot;1&quot;/&gt;&lt;p style=&quot;margin:0px;margin-left:4px;&quot;&gt;+ id, name, code&lt;/p&gt;&lt;p style=&quot;margin:0px;margin-left:4px;&quot;&gt;(referenced by ICE specs)&lt;/p&gt;" style="verticalAlign=top;align=left;overflow=fill;fontSize=11;fontFamily=Helvetica;html=1;fillColor=#E3F2FD;strokeColor=#1976D2;strokeWidth=2;" parent="1" vertex="1">
          <mxGeometry x="320" y="730" width="300" height="100" as="geometry" />
        </mxCell>
        <mxCell id="study-pop" value="&lt;p style=&quot;margin:0px;margin-top:4px;text-align:center;&quot;&gt;&lt;i&gt;&amp;lt;&amp;lt;USDM Core&amp;gt;&amp;gt;&lt;/i&gt;&lt;/p&gt;&lt;p style=&quot;margin:0px;margin-top:4px;text-align:center;&quot;&gt;&lt;b&gt;StudyDesignPopulation&lt;/b&gt;&lt;/p&gt;&lt;hr size=&quot;1&quot;/&gt;&lt;p style=&quot;margin:0px;margin-left:4px;&quot;&gt;+ id: String&lt;/p&gt;&lt;p style=&quot;margin:0px;margin-left:4px;&quot;&gt;+ name: String&lt;/p&gt;&lt;p style=&quot;margin:0px;margin-left:4px;&quot;&gt;+ eligibilityCriteria&lt;/p&gt;" style="verticalAlign=top;align=left;overflow=fill;fontSize=11;fontFamily=Helvetica;html=1;fillColor=#E3F2FD;strokeColor=#1976D2;strokeWidth=2;" parent="1" vertex="1">
          <mxGeometry x="320" y="327.5" width="300" height="90" as="geometry" />
        </mxCell>
        <mxCell id="analysis-pop" value="&lt;p style=&quot;margin:0px;margin-top:4px;text-align:center;&quot;&gt;&lt;i&gt;&amp;lt;&amp;lt;USDM Core&amp;gt;&amp;gt;&lt;/i&gt;&lt;/p&gt;&lt;p style=&quot;margin:0px;margin-top:4px;text-align:center;&quot;&gt;&lt;b&gt;AnalysisPopulation&lt;/b&gt;&lt;/p&gt;&lt;hr size=&quot;1&quot;/&gt;&lt;p style=&quot;margin:0px;margin-left:4px;&quot;&gt;+ id: String&lt;/p&gt;&lt;p style=&quot;margin:0px;margin-left:4px;&quot;&gt;+ name: String&lt;/p&gt;&lt;p style=&quot;margin:0px;margin-left:4px;&quot;&gt;+ condition: String&lt;/p&gt;" style="verticalAlign=top;align=left;overflow=fill;fontSize=11;fontFamily=Helvetica;html=1;fillColor=#E3F2FD;strokeColor=#1976D2;strokeWidth=2;" parent="1" vertex="1">
          <mxGeometry x="320" y="448.75" width="300" height="90" as="geometry" />
        </mxCell>
        <mxCell id="attr-header" value="&lt;b&gt;5 ESTIMAND ATTRIBUTES (ICH E9 R1)&lt;/b&gt;" style="rounded=0;whiteSpace=wrap;html=1;fillColor=#FFEBEE;strokeColor=#CC0000;strokeWidth=2;fontSize=13;fontStyle=1" parent="1" vertex="1">
          <mxGeometry x="700" y="80" width="500" height="35" as="geometry" />
        </mxCell>
        <mxCell id="attr-1" value="&lt;p style=&quot;margin:0px;margin-top:4px;text-align:center;&quot;&gt;&lt;i&gt;&amp;lt;&amp;lt;Attribute 1&amp;gt;&amp;gt;&lt;/i&gt;&lt;/p&gt;&lt;p style=&quot;margin:0px;margin-top:4px;text-align:center;&quot;&gt;&lt;b&gt;TreatmentAttribute&lt;/b&gt;&lt;/p&gt;&lt;hr size=&quot;1&quot;/&gt;&lt;p style=&quot;margin:0px;margin-left:4px;&quot;&gt;+ id: String&lt;/p&gt;&lt;p style=&quot;margin:0px;margin-left:4px;&quot;&gt;+ condition: String&lt;/p&gt;&lt;p style=&quot;margin:0px;margin-left:4px;&quot;&gt;+ regimen: String&lt;/p&gt;&lt;p style=&quot;margin:0px;margin-left:4px;&quot;&gt;+ dose: String&lt;/p&gt;&lt;p style=&quot;margin:0px;margin-left:4px;&quot;&gt;+ frequency: String&lt;/p&gt;&lt;p style=&quot;margin:0px;margin-left:4px;&quot;&gt;+ backgroundTreatment: String&lt;/p&gt;" style="verticalAlign=top;align=left;overflow=fill;fontSize=11;fontFamily=Helvetica;html=1;fillColor=#FFCCCC;strokeColor=#CC0000;strokeWidth=2;" parent="1" vertex="1">
          <mxGeometry x="790" y="125" width="230" height="145" as="geometry" />
        </mxCell>
        <mxCell id="attr-2" value="&lt;p style=&quot;margin:0px;margin-top:4px;text-align:center;&quot;&gt;&lt;i&gt;&amp;lt;&amp;lt;Attribute 2&amp;gt;&amp;gt;&lt;/i&gt;&lt;/p&gt;&lt;p style=&quot;margin:0px;margin-top:4px;text-align:center;&quot;&gt;&lt;b&gt;PopulationAttribute&lt;/b&gt;&lt;/p&gt;&lt;hr size=&quot;1&quot;/&gt;&lt;p style=&quot;margin:0px;margin-left:4px;&quot;&gt;+ id: String&lt;/p&gt;&lt;p style=&quot;margin:0px;margin-left:4px;&quot;&gt;+ description: String&lt;/p&gt;&lt;p style=&quot;margin:0px;margin-left:4px;&quot;&gt;+ populationType: Code&lt;/p&gt;&lt;p style=&quot;margin:0px;margin-left:4px;&quot;&gt;+ principalStratumDef: String&lt;/p&gt;&lt;p style=&quot;margin:0px;margin-left:4px;&quot;&gt;+ baselineSubgroup: String&lt;/p&gt;" style="verticalAlign=top;align=left;overflow=fill;fontSize=11;fontFamily=Helvetica;html=1;fillColor=#FFCCCC;strokeColor=#CC0000;strokeWidth=2;" parent="1" vertex="1">
          <mxGeometry x="790" y="282.5" width="230" height="135" as="geometry" />
        </mxCell>
        <mxCell id="attr-3-note" value="&lt;b&gt;Attribute 3: Variable&lt;/b&gt;&lt;br&gt;= Endpoint from USDM Core&lt;br&gt;&lt;br&gt;ICH E9(R1) uses&lt;br&gt;&amp;quot;variable (endpoint)&amp;quot;&lt;br&gt;interchangeably&lt;br&gt;&lt;br&gt;Direct reference, no wrapper" style="shape=note;whiteSpace=wrap;html=1;backgroundOutline=1;darkOpacity=0.05;fillColor=#FFF9E6;strokeColor=#CC0000;align=left;verticalAlign=top;fontSize=10;fontFamily=Helvetica;strokeWidth=2;" parent="1" vertex="1">
          <mxGeometry x="20" y="190" width="230" height="150" as="geometry" />
        </mxCell>
        <mxCell id="attr-5" value="&lt;p style=&quot;margin:0px;margin-top:4px;text-align:center;&quot;&gt;&lt;i&gt;&amp;lt;&amp;lt;Attribute 5&amp;gt;&amp;gt;&lt;/i&gt;&lt;/p&gt;&lt;p style=&quot;margin:0px;margin-top:4px;text-align:center;&quot;&gt;&lt;b&gt;PopulationSummaryAttribute&lt;/b&gt;&lt;/p&gt;&lt;hr size=&quot;1&quot;/&gt;&lt;p style=&quot;margin:0px;margin-left:4px;&quot;&gt;+ id: String&lt;/p&gt;&lt;p style=&quot;margin:0px;margin-left:4px;&quot;&gt;+ summaryType: String&lt;/p&gt;&lt;p style=&quot;margin:0px;margin-left:4px;&quot;&gt;+ statisticalMeasure: String&lt;/p&gt;&lt;p style=&quot;margin:0px;margin-left:4px;&quot;&gt;+ comparisonType: String&lt;/p&gt;&lt;p style=&quot;margin:0px;margin-left:4px;&quot;&gt;+ statoCode: Code&lt;/p&gt;" style="verticalAlign=top;align=left;overflow=fill;fontSize=11;fontFamily=Helvetica;html=1;fillColor=#FFCCCC;strokeColor=#CC0000;strokeWidth=2;" parent="1" vertex="1">
          <mxGeometry x="790" y="719" width="230" height="135" as="geometry" />
        </mxCell>
        <mxCell id="ice-header" value="&lt;b&gt;INTERCURRENT EVENT FRAMEWORK&lt;/b&gt;" style="rounded=0;whiteSpace=wrap;html=1;fillColor=#F3E5F5;strokeColor=#7B1FA2;strokeWidth=2;fontSize=13;fontStyle=1" parent="1" vertex="1">
          <mxGeometry x="1260" y="80" width="500" height="35" as="geometry" />
        </mxCell>
        <mxCell id="ice" value="&lt;p style=&quot;margin:0px;margin-top:4px;text-align:center;&quot;&gt;&lt;b&gt;InterCurrentEvent&lt;/b&gt;&lt;/p&gt;&lt;hr size=&quot;1&quot;/&gt;&lt;p style=&quot;margin:0px;margin-left:4px;&quot;&gt;+ id: String&lt;/p&gt;&lt;p style=&quot;margin:0px;margin-left:4px;&quot;&gt;+ name: String&lt;/p&gt;&lt;p style=&quot;margin:0px;margin-left:4px;&quot;&gt;+ description: String&lt;/p&gt;&lt;p style=&quot;margin:0px;margin-left:4px;&quot;&gt;+ timing: String&lt;/p&gt;&lt;p style=&quot;margin:0px;margin-left:4px;&quot;&gt;+ timingCategory: Code&lt;/p&gt;&lt;p style=&quot;margin:0px;margin-left:4px;&quot;&gt;+ reason: String&lt;/p&gt;&lt;p style=&quot;margin:0px;margin-left:4px;&quot;&gt;+ reasonCategory: Code&lt;/p&gt;&lt;p style=&quot;margin:0px;margin-left:4px;&quot;&gt;+ precedence: Integer&lt;/p&gt;" style="verticalAlign=top;align=left;overflow=fill;fontSize=11;fontFamily=Helvetica;html=1;fillColor=#E1BEE7;strokeColor=#7B1FA2;strokeWidth=2;" parent="1" vertex="1">
          <mxGeometry x="1260" y="135" width="230" height="170" as="geometry" />
        </mxCell>
        <mxCell id="ice-tech" value="&lt;p style=&quot;margin:0px;margin-top:4px;text-align:center;&quot;&gt;&lt;b&gt;ICETechnicalSpecification&lt;/b&gt;&lt;/p&gt;&lt;hr size=&quot;1&quot;/&gt;&lt;p style=&quot;margin:0px;margin-left:4px;&quot;&gt;+ id: String&lt;/p&gt;&lt;p style=&quot;margin:0px;margin-left:4px;&quot;&gt;+ sourceConceptId: String&lt;/p&gt;&lt;p style=&quot;margin:0px;margin-left:4px;&quot;&gt;+ sourceDomain: String&lt;/p&gt;&lt;p style=&quot;margin:0px;margin-left:4px;&quot;&gt;+ triggerField: String&lt;/p&gt;&lt;p style=&quot;margin:0px;margin-left:4px;&quot;&gt;+ triggerValue: String&lt;/p&gt;&lt;p style=&quot;margin:0px;margin-left:4px;&quot;&gt;+ timingCheck: String&lt;/p&gt;&lt;p style=&quot;margin:0px;margin-left:4px;&quot;&gt;+ programmingAgnostic: Boolean&lt;/p&gt;" style="verticalAlign=top;align=left;overflow=fill;fontSize=11;fontFamily=Helvetica;html=1;fillColor=#E1BEE7;strokeColor=#7B1FA2;strokeWidth=2;" parent="1" vertex="1">
          <mxGeometry x="1600" y="145" width="230" height="150" as="geometry" />
        </mxCell>
        <mxCell id="ice-strategy" value="&lt;p style=&quot;margin:0px;margin-top:4px;text-align:center;&quot;&gt;&lt;b&gt;ICEStrategy&lt;/b&gt;&lt;/p&gt;&lt;hr size=&quot;1&quot;/&gt;&lt;p style=&quot;margin:0px;margin-left:4px;&quot;&gt;+ id: String&lt;/p&gt;&lt;p style=&quot;margin:0px;margin-left:4px;&quot;&gt;+ strategyType: Code&lt;/p&gt;&lt;p style=&quot;margin:0px;margin-left:4px;&quot;&gt;+ rationale: String&lt;/p&gt;&lt;p style=&quot;margin:0px;margin-left:4px;&quot;&gt;+ hypotheticalScenario: String&lt;/p&gt;&lt;p style=&quot;margin:0px;margin-left:4px;&quot;&gt;+ assumptions: Object&lt;/p&gt;" style="verticalAlign=top;align=left;overflow=fill;fontSize=11;fontFamily=Helvetica;html=1;fillColor=#FFE082;strokeColor=#F57C00;strokeWidth=2;" parent="1" vertex="1">
          <mxGeometry x="1260" y="360" width="230" height="125" as="geometry" />
        </mxCell>
        <mxCell id="data-collect" value="&lt;p style=&quot;margin:0px;margin-top:4px;text-align:center;&quot;&gt;&lt;b&gt;DataCollectionSpecification&lt;/b&gt;&lt;/p&gt;&lt;hr size=&quot;1&quot;/&gt;&lt;p style=&quot;margin:0px;margin-left:4px;&quot;&gt;+ id: String&lt;/p&gt;&lt;p style=&quot;margin:0px;margin-left:4px;&quot;&gt;+ postICEBehavior: Code&lt;/p&gt;&lt;p style=&quot;margin:0px;margin-left:4px;&quot;&gt;+ requiredConceptIds: String[]&lt;/p&gt;&lt;p style=&quot;margin:0px;margin-left:4px;&quot;&gt;+ requiredActivityIds: String[]&lt;/p&gt;&lt;p style=&quot;margin:0px;margin-left:4px;&quot;&gt;+ conditionalLogic: String&lt;/p&gt;&lt;p style=&quot;margin:0px;margin-left:4px;&quot;&gt;+ mandatoryForStrategy: Boolean&lt;/p&gt;" style="verticalAlign=top;align=left;overflow=fill;fontSize=11;fontFamily=Helvetica;html=1;fillColor=#FFE082;strokeColor=#F57C00;strokeWidth=2;" parent="1" vertex="1">
          <mxGeometry x="1260" y="546.5" width="230" height="145" as="geometry" />
        </mxCell>
        <mxCell id="ice-impact" value="&lt;p style=&quot;margin:0px;margin-top:4px;text-align:center;&quot;&gt;&lt;b&gt;ICEImpactAssessment&lt;/b&gt;&lt;/p&gt;&lt;hr size=&quot;1&quot;/&gt;&lt;p style=&quot;margin:0px;margin-left:4px;&quot;&gt;+ id: String&lt;/p&gt;&lt;p style=&quot;margin:0px;margin-left:4px;&quot;&gt;+ assessmentRules: Object[]&lt;/p&gt;&lt;p style=&quot;margin:0px;margin-left:4px;&quot;&gt;+ precedenceLogic: String&lt;/p&gt;&lt;p style=&quot;margin:0px;margin-left:4px;&quot;&gt;+ flaggingConvention: String&lt;/p&gt;" style="verticalAlign=top;align=left;overflow=fill;fontSize=11;fontFamily=Helvetica;html=1;fillColor=#B2EBF2;strokeColor=#006064;strokeWidth=2;" parent="1" vertex="1">
          <mxGeometry x="1600" y="571.5" width="230" height="110" as="geometry" />
        </mxCell>
        <mxCell id="ice-occurrence" value="&lt;p style=&quot;margin:0px;margin-top:4px;text-align:center;&quot;&gt;&lt;b&gt;ICEOccurrenceRecord&lt;/b&gt;&lt;/p&gt;&lt;hr size=&quot;1&quot;/&gt;&lt;p style=&quot;margin:0px;margin-left:4px;&quot;&gt;+ usubjid: String&lt;/p&gt;&lt;p style=&quot;margin:0px;margin-left:4px;&quot;&gt;+ iceId: String&lt;/p&gt;&lt;p style=&quot;margin:0px;margin-left:4px;&quot;&gt;+ startDate: Date&lt;/p&gt;&lt;p style=&quot;margin:0px;margin-left:4px;&quot;&gt;+ endDate: Date&lt;/p&gt;&lt;p style=&quot;margin:0px;margin-left:4px;&quot;&gt;+ actualReason: String&lt;/p&gt;&lt;p style=&quot;margin:0px;margin-left:4px;&quot;&gt;+ appliedStrategyId: String&lt;/p&gt;" style="verticalAlign=top;align=left;overflow=fill;fontSize=11;fontFamily=Helvetica;html=1;fillColor=#B2EBF2;strokeColor=#006064;strokeWidth=2;" parent="1" vertex="1">
          <mxGeometry x="1600" y="370" width="230" height="130" as="geometry" />
        </mxCell>
        <mxCell id="analysis-header" value="&lt;b&gt;ANALYSIS FRAMEWORK&lt;/b&gt;" style="rounded=0;whiteSpace=wrap;html=1;fillColor=#E8EAF6;strokeColor=#3949AB;strokeWidth=2;fontSize=13;fontStyle=1" parent="1" vertex="1">
          <mxGeometry x="700" y="927" width="1060" height="35" as="geometry" />
        </mxCell>
        <mxCell id="analysis-concept" value="&lt;p style=&quot;margin:0px;margin-top:4px;text-align:center;&quot;&gt;&lt;b&gt;AnalysisConcept&lt;/b&gt;&lt;/p&gt;&lt;hr size=&quot;1&quot;/&gt;&lt;p style=&quot;margin:0px;margin-left:4px;&quot;&gt;+ id: String&lt;/p&gt;&lt;p style=&quot;margin:0px;margin-left:4px;&quot;&gt;+ name: String&lt;/p&gt;&lt;p style=&quot;margin:0px;margin-left:4px;&quot;&gt;+ analysisRole: Code&lt;/p&gt;&lt;p style=&quot;margin:0px;margin-left:4px;&quot;&gt;+ relatedEstimandId: String&lt;/p&gt;&lt;p style=&quot;margin:0px;margin-left:4px;&quot;&gt;+ version: String&lt;/p&gt;&lt;p style=&quot;margin:0px;margin-left:4px;&quot;&gt;+ programmingAgnostic: Boolean&lt;/p&gt;" style="verticalAlign=top;align=left;overflow=fill;fontSize=11;fontFamily=Helvetica;html=1;fillColor=#C5CAE9;strokeColor=#3949AB;strokeWidth=2;" parent="1" vertex="1">
          <mxGeometry x="940" y="985" width="240" height="145" as="geometry" />
        </mxCell>
        <mxCell id="analysis-method" value="&lt;p style=&quot;margin:0px;margin-top:4px;text-align:center;&quot;&gt;&lt;b&gt;AnalysisMethod&lt;/b&gt;&lt;/p&gt;&lt;hr size=&quot;1&quot;/&gt;&lt;p style=&quot;margin:0px;margin-left:4px;&quot;&gt;+ id: String&lt;/p&gt;&lt;p style=&quot;margin:0px;margin-left:4px;&quot;&gt;+ methodType: Code&lt;/p&gt;&lt;p style=&quot;margin:0px;margin-left:4px;&quot;&gt;+ modelSpecification: String&lt;/p&gt;&lt;p style=&quot;margin:0px;margin-left:4px;&quot;&gt;+ covariates: String[]&lt;/p&gt;&lt;p style=&quot;margin:0px;margin-left:4px;&quot;&gt;+ statoCode: Code&lt;/p&gt;" style="verticalAlign=top;align=left;overflow=fill;fontSize=11;fontFamily=Helvetica;html=1;fillColor=#C5CAE9;strokeColor=#3949AB;strokeWidth=2;" parent="1" vertex="1">
          <mxGeometry x="940" y="1200" width="240" height="125" as="geometry" />
        </mxCell>
        <mxCell id="analysis-input" value="&lt;p style=&quot;margin:0px;margin-top:4px;text-align:center;&quot;&gt;&lt;b&gt;AnalysisInputSpecification&lt;/b&gt;&lt;/p&gt;&lt;hr size=&quot;1&quot;/&gt;&lt;p style=&quot;margin:0px;margin-left:4px;&quot;&gt;+ id: String&lt;/p&gt;&lt;p style=&quot;margin:0px;margin-left:4px;&quot;&gt;+ datasetName: String&lt;/p&gt;&lt;p style=&quot;margin:0px;margin-left:4px;&quot;&gt;+ variables: String[]&lt;/p&gt;&lt;p style=&quot;margin:0px;margin-left:4px;&quot;&gt;+ whereConditions: String[]&lt;/p&gt;&lt;p style=&quot;margin:0px;margin-left:4px;&quot;&gt;+ iceFlags: String[]&lt;/p&gt;" style="verticalAlign=top;align=left;overflow=fill;fontSize=11;fontFamily=Helvetica;html=1;fillColor=#C5CAE9;strokeColor=#3949AB;strokeWidth=2;" parent="1" vertex="1">
          <mxGeometry x="660" y="1200" width="240" height="130" as="geometry" />
        </mxCell>
        <mxCell id="analysis-output" value="&lt;p style=&quot;margin:0px;margin-top:4px;text-align:center;&quot;&gt;&lt;b&gt;AnalysisOutputSpecification&lt;/b&gt;&lt;/p&gt;&lt;hr size=&quot;1&quot;/&gt;&lt;p style=&quot;margin:0px;margin-left:4px;&quot;&gt;+ id: String&lt;/p&gt;&lt;p style=&quot;margin:0px;margin-left:4px;&quot;&gt;+ outputStructure: Code&lt;/p&gt;&lt;p style=&quot;margin:0px;margin-left:4px;&quot;&gt;+ parameters: String[]&lt;/p&gt;&lt;p style=&quot;margin:0px;margin-left:4px;&quot;&gt;+ precision: String&lt;/p&gt;&lt;p style=&quot;margin:0px;margin-left:4px;&quot;&gt;+ confidenceIntervals: String[]&lt;/p&gt;" style="verticalAlign=top;align=left;overflow=fill;fontSize=11;fontFamily=Helvetica;html=1;fillColor=#C5CAE9;strokeColor=#3949AB;strokeWidth=2;" parent="1" vertex="1">
          <mxGeometry x="1230" y="1200" width="240" height="130" as="geometry" />
        </mxCell>
        <mxCell id="imputation" value="&lt;p style=&quot;margin:0px;margin-top:4px;text-align:center;&quot;&gt;&lt;b&gt;ImputationMethod&lt;/b&gt;&lt;/p&gt;&lt;hr size=&quot;1&quot;/&gt;&lt;p style=&quot;margin:0px;margin-left:4px;&quot;&gt;+ id: String&lt;/p&gt;&lt;p style=&quot;margin:0px;margin-left:4px;&quot;&gt;+ imputationType: Code&lt;/p&gt;&lt;p style=&quot;margin:0px;margin-left:4px;&quot;&gt;+ numberOfImputations: Integer&lt;/p&gt;&lt;p style=&quot;margin:0px;margin-left:4px;&quot;&gt;+ imputationModel: String&lt;/p&gt;&lt;p style=&quot;margin:0px;margin-left:4px;&quot;&gt;+ treatmentArmSpecific: Boolean&lt;/p&gt;&lt;p style=&quot;margin:0px;margin-left:4px;&quot;&gt;+ marAssumption: Code&lt;/p&gt;" style="verticalAlign=top;align=left;overflow=fill;fontSize=11;fontFamily=Helvetica;html=1;fillColor=#C5CAE9;strokeColor=#3949AB;strokeWidth=2;" parent="1" vertex="1">
          <mxGeometry x="1420" y="985" width="240" height="145" as="geometry" />
        </mxCell>
        <mxCell id="analysis-result" value="&lt;p style=&quot;margin:0px;margin-top:4px;text-align:center;&quot;&gt;&lt;b&gt;AnalysisResult&lt;/b&gt;&lt;/p&gt;&lt;hr size=&quot;1&quot;/&gt;&lt;p style=&quot;margin:0px;margin-left:4px;&quot;&gt;+ id: String&lt;/p&gt;&lt;p style=&quot;margin:0px;margin-left:4px;&quot;&gt;+ analysisConceptId: String&lt;/p&gt;&lt;p style=&quot;margin:0px;margin-left:4px;&quot;&gt;+ parameter: String&lt;/p&gt;&lt;p style=&quot;margin:0px;margin-left:4px;&quot;&gt;+ estimate: Number&lt;/p&gt;&lt;p style=&quot;margin:0px;margin-left:4px;&quot;&gt;+ standardError: Number&lt;/p&gt;&lt;p style=&quot;margin:0px;margin-left:4px;&quot;&gt;+ lowerCI: Number&lt;/p&gt;&lt;p style=&quot;margin:0px;margin-left:4px;&quot;&gt;+ upperCI: Number&lt;/p&gt;&lt;p style=&quot;margin:0px;margin-left:4px;&quot;&gt;+ pValue: Number&lt;/p&gt;" style="verticalAlign=top;align=left;overflow=fill;fontSize=11;fontFamily=Helvetica;html=1;fillColor=#B2DFDB;strokeColor=#00695C;strokeWidth=2;" parent="1" vertex="1">
          <mxGeometry x="1430" y="1370" width="240" height="180" as="geometry" />
        </mxCell>
        <mxCell id="rel-1" value="attribute_1 1" style="endArrow=open;endSize=12;dashed=0;html=1;exitX=1;exitY=0.5;exitDx=0;exitDy=0;entryX=0.009;entryY=0.455;entryDx=0;entryDy=0;strokeWidth=2;strokeColor=#CC0000;entryPerimeter=0;" parent="1" source="estimand" target="attr-1" edge="1">
          <mxGeometry x="-0.1787" y="2" relative="1" as="geometry">
            <mxPoint as="offset" />
          </mxGeometry>
        </mxCell>
        <mxCell id="rel-2" value="attribute_2 1" style="endArrow=open;endSize=12;dashed=0;html=1;exitX=1;exitY=0.5;exitDx=0;exitDy=0;entryX=0;entryY=0.5;entryDx=0;entryDy=0;strokeWidth=2;strokeColor=#CC0000;" parent="1" source="estimand" target="attr-2" edge="1">
          <mxGeometry x="-0.3027" y="2" relative="1" as="geometry">
            <mxPoint as="offset" />
          </mxGeometry>
        </mxCell>
        <mxCell id="rel-3" value="attribute_3 1" style="endArrow=open;endSize=12;dashed=0;html=1;exitX=1;exitY=0.5;exitDx=0;exitDy=0;strokeWidth=2;strokeColor=#CC0000;entryX=0;entryY=0.5;entryDx=0;entryDy=0;" parent="1" source="estimand" target="endpoint" edge="1">
          <mxGeometry x="-0.3641" y="7" relative="1" as="geometry">
            <mxPoint x="920" y="440" as="targetPoint" />
            <mxPoint as="offset" />
          </mxGeometry>
        </mxCell>
        <mxCell id="rel-4" value="attribute_4 1" style="endArrow=open;endSize=12;dashed=0;html=1;exitX=1;exitY=0.5;exitDx=0;exitDy=0;entryX=0;entryY=0.5;entryDx=0;entryDy=0;strokeWidth=2;strokeColor=#CC0000;" parent="1" source="estimand" target="attr-4" edge="1">
          <mxGeometry x="0.234" y="6" relative="1" as="geometry">
            <mxPoint as="offset" />
          </mxGeometry>
        </mxCell>
        <mxCell id="rel-5" value="attribute_5 1" style="endArrow=open;endSize=12;dashed=0;html=1;exitX=1;exitY=0.5;exitDx=0;exitDy=0;entryX=0;entryY=0.5;entryDx=0;entryDy=0;strokeWidth=2;strokeColor=#CC0000;" parent="1" source="estimand" target="attr-5" edge="1">
          <mxGeometry relative="1" as="geometry" />
        </mxCell>
        <mxCell id="rel-6" value="hasSensitivityAnalysis 0..*&amp;nbsp;" style="endArrow=open;endSize=12;dashed=0;html=1;exitX=0;exitY=0.5;exitDx=0;exitDy=0;entryX=0;entryY=0.5;entryDx=0;entryDy=0;strokeWidth=2;strokeColor=#1976D2;" parent="1" source="estimand" target="sensitivity" edge="1">
          <mxGeometry x="-0.0342" y="-20" relative="1" as="geometry">
            <Array as="points">
              <mxPoint x="260" y="260" />
              <mxPoint x="260" y="637" />
            </Array>
            <mxPoint as="offset" />
          </mxGeometry>
        </mxCell>
        <mxCell id="rel-7" value="includesICE 1..*" style="endArrow=open;endSize=12;dashed=0;html=1;exitX=1;exitY=0.5;exitDx=0;exitDy=0;entryX=0;entryY=0.25;entryDx=0;entryDy=0;strokeWidth=2;strokeColor=#7B1FA2;" parent="1" source="attr-4" target="ice" edge="1">
          <mxGeometry relative="1" as="geometry" />
        </mxCell>
        <mxCell id="rel-8" value="specifiedBy 1" style="endArrow=open;endSize=12;dashed=0;html=1;exitX=1;exitY=0.5;exitDx=0;exitDy=0;entryX=0;entryY=0.5;entryDx=0;entryDy=0;strokeWidth=2;strokeColor=#7B1FA2;" parent="1" source="ice" target="ice-tech" edge="1">
          <mxGeometry relative="1" as="geometry" />
        </mxCell>
        <mxCell id="rel-9" value="handledBy 1" style="endArrow=open;endSize=12;dashed=0;html=1;exitX=0.5;exitY=1;exitDx=0;exitDy=0;entryX=0.5;entryY=0;entryDx=0;entryDy=0;strokeWidth=2;strokeColor=#F57C00;" parent="1" source="ice" target="ice-strategy" edge="1">
          <mxGeometry relative="1" as="geometry" />
        </mxCell>
        <mxCell id="rel-10" value="requiresDataCollection 1" style="endArrow=open;endSize=12;dashed=0;html=1;exitX=0.5;exitY=1;exitDx=0;exitDy=0;strokeWidth=2;strokeColor=#F57C00;" parent="1" source="ice-strategy" target="data-collect" edge="1">
          <mxGeometry relative="1" as="geometry" />
        </mxCell>
        <mxCell id="rel-11" value="detects 0..*" style="endArrow=open;endSize=12;dashed=0;html=1;exitX=0.5;exitY=1;exitDx=0;exitDy=0;entryX=0.5;entryY=0;entryDx=0;entryDy=0;strokeWidth=2;strokeColor=#006064;" parent="1" source="ice-tech" target="ice-occurrence" edge="1">
          <mxGeometry relative="1" as="geometry" />
        </mxCell>
        <mxCell id="rel-12" value="assessedBy 1" style="endArrow=open;endSize=12;dashed=0;html=1;exitX=0.5;exitY=1;exitDx=0;exitDy=0;entryX=0.5;entryY=0;entryDx=0;entryDy=0;strokeWidth=2;strokeColor=#006064;" parent="1" source="ice-occurrence" target="ice-impact" edge="1">
          <mxGeometry relative="1" as="geometry" />
        </mxCell>
        <mxCell id="rel-13" value="" style="endArrow=open;endSize=12;dashed=0;html=1;exitX=1;exitY=0.5;exitDx=0;exitDy=0;entryX=0;entryY=0.5;entryDx=0;entryDy=0;strokeWidth=2;strokeColor=#3949AB;" parent="1" source="sensitivity" target="analysis-concept" edge="1">
          <mxGeometry x="-0.0461" y="30" relative="1" as="geometry">
            <Array as="points">
              <mxPoint x="660" y="640" />
              <mxPoint x="660" y="1040" />
            </Array>
            <mxPoint as="offset" />
          </mxGeometry>
        </mxCell>
        <mxCell id="ixEZU5qe94HeKBymWElp-10" value="implementedByEstimator 1" style="edgeLabel;html=1;align=center;verticalAlign=middle;resizable=0;points=[];" vertex="1" connectable="0" parent="rel-13">
          <mxGeometry x="-0.1191" y="-2" relative="1" as="geometry">
            <mxPoint x="72" y="123" as="offset" />
          </mxGeometry>
        </mxCell>
        <mxCell id="rel-14" value="hasMethod 1" style="endArrow=open;endSize=12;dashed=0;html=1;exitX=0.5;exitY=1;exitDx=0;exitDy=0;entryX=0.5;entryY=0;entryDx=0;entryDy=0;strokeWidth=2;strokeColor=#3949AB;" parent="1" source="analysis-concept" target="analysis-method" edge="1">
          <mxGeometry relative="1" as="geometry" />
        </mxCell>
        <mxCell id="rel-15" value="hasInputSpec 1" style="endArrow=open;endSize=12;dashed=0;html=1;exitX=0.5;exitY=1;exitDx=0;exitDy=0;entryX=0.5;entryY=0;entryDx=0;entryDy=0;strokeWidth=2;strokeColor=#3949AB;" parent="1" source="analysis-concept" target="analysis-input" edge="1">
          <mxGeometry relative="1" as="geometry" />
        </mxCell>
        <mxCell id="rel-16" value="hasOutputSpec 1" style="endArrow=open;endSize=12;dashed=0;html=1;exitX=0.5;exitY=1;exitDx=0;exitDy=0;entryX=0.5;entryY=0;entryDx=0;entryDy=0;strokeWidth=2;strokeColor=#3949AB;" parent="1" source="analysis-concept" target="analysis-output" edge="1">
          <mxGeometry relative="1" as="geometry" />
        </mxCell>
        <mxCell id="rel-17" value="hasImputationMethod 0..1" style="endArrow=open;endSize=12;dashed=1;html=1;exitX=1;exitY=0.5;exitDx=0;exitDy=0;entryX=0;entryY=0.5;entryDx=0;entryDy=0;strokeWidth=2;strokeColor=#3949AB;dashPattern=8 8;" parent="1" source="analysis-concept" target="imputation" edge="1">
          <mxGeometry relative="1" as="geometry" />
        </mxCell>
        <mxCell id="rel-18" value="produces 1..*" style="endArrow=open;endSize=12;dashed=0;html=1;exitX=0.5;exitY=1;exitDx=0;exitDy=0;entryX=0;entryY=0.25;entryDx=0;entryDy=0;strokeWidth=2;strokeColor=#00695C;" parent="1" source="analysis-concept" target="analysis-result" edge="1">
          <mxGeometry x="0.2784" y="-4" relative="1" as="geometry">
            <Array as="points">
              <mxPoint x="1200" y="1190" />
              <mxPoint x="1220" y="1350" />
            </Array>
            <mxPoint as="offset" />
          </mxGeometry>
        </mxCell>
        <mxCell id="rel-19" value="computes 1..*" style="endArrow=open;endSize=12;dashed=0;html=1;exitX=0.5;exitY=1;exitDx=0;exitDy=0;entryX=0;entryY=0.75;entryDx=0;entryDy=0;strokeWidth=2;strokeColor=#00695C;" parent="1" source="analysis-method" target="analysis-result" edge="1">
          <mxGeometry relative="1" as="geometry">
            <Array as="points">
              <mxPoint x="1130" y="1490" />
            </Array>
          </mxGeometry>
        </mxCell>
        <mxCell id="rel-20" value="definesStructure 1..*" style="endArrow=open;endSize=12;dashed=1;html=1;exitX=1;exitY=0.5;exitDx=0;exitDy=0;entryX=0.5;entryY=0;entryDx=0;entryDy=0;strokeWidth=2;strokeColor=#00695C;dashPattern=8 8;" parent="1" source="analysis-output" target="analysis-result" edge="1">
          <mxGeometry x="0.0387" y="-3" relative="1" as="geometry">
            <Array as="points">
              <mxPoint x="1550" y="1270" />
            </Array>
            <mxPoint as="offset" />
          </mxGeometry>
        </mxCell>
        <mxCell id="rel-21" value="informedBy 0..1" style="endArrow=open;endSize=12;dashed=1;html=1;exitX=0;exitY=0.5;exitDx=0;exitDy=0;entryX=1;entryY=0.5;entryDx=0;entryDy=0;strokeWidth=2;strokeColor=#CC0000;dashPattern=8 8;" parent="1" source="attr-2" target="study-pop" edge="1">
          <mxGeometry relative="1" as="geometry" />
        </mxCell>
        <mxCell id="rel-22" value="operationalizedBy 0..1" style="endArrow=open;endSize=12;dashed=1;html=1;exitX=0;exitY=0.5;exitDx=0;exitDy=0;entryX=1;entryY=0.5;entryDx=0;entryDy=0;strokeWidth=2;strokeColor=#CC0000;dashPattern=8 8;" parent="1" source="attr-2" target="analysis-pop" edge="1">
          <mxGeometry relative="1" as="geometry" />
        </mxCell>
        <mxCell id="rel-23" value="evaluatesAssumption 1" style="endArrow=open;endSize=12;dashed=1;html=1;exitX=1;exitY=0.5;exitDx=0;exitDy=0;entryX=0;entryY=0.5;entryDx=0;entryDy=0;strokeWidth=2;strokeColor=#F57C00;dashPattern=8 8;" parent="1" source="attr-4" target="ice-strategy" edge="1">
          <mxGeometry relative="1" as="geometry" />
        </mxCell>
        <mxCell id="rel-24" value="" style="endArrow=open;endSize=10;dashed=1;html=1;exitX=0.5;exitY=1;exitDx=0;exitDy=0;entryX=1;entryY=0.5;entryDx=0;entryDy=0;strokeWidth=1;strokeColor=#666666;dashPattern=2 4;" parent="1" source="data-collect" target="other-core" edge="1">
          <mxGeometry relative="1" as="geometry">
            <Array as="points">
              <mxPoint x="1260" y="880" />
              <mxPoint x="680" y="880" />
              <mxPoint x="670" y="780" />
            </Array>
          </mxGeometry>
        </mxCell>
        <mxCell id="ixEZU5qe94HeKBymWElp-6" value="requiresConcepts" style="edgeLabel;html=1;align=center;verticalAlign=middle;resizable=0;points=[];" vertex="1" connectable="0" parent="rel-24">
          <mxGeometry x="-0.5026" y="-1" relative="1" as="geometry">
            <mxPoint x="-142" y="1" as="offset" />
          </mxGeometry>
        </mxCell>
        <mxCell id="rel-25" value="" style="endArrow=open;endSize=8;dashed=1;html=1;exitX=1;exitY=0.5;exitDx=0;exitDy=0;strokeWidth=1;strokeColor=#999999;dashPattern=2 4;entryX=0.073;entryY=-0.028;entryDx=0;entryDy=0;entryPerimeter=0;" parent="1" source="attr-1" target="analysis-input" edge="1">
          <mxGeometry relative="1" as="geometry">
            <mxPoint x="550" y="1190" as="targetPoint" />
            <Array as="points">
              <mxPoint x="1080" y="198" />
              <mxPoint x="1070" y="910" />
              <mxPoint x="678" y="1090" />
            </Array>
          </mxGeometry>
        </mxCell>
        <mxCell id="rel-26" value="" style="endArrow=open;endSize=8;dashed=1;html=1;exitX=1;exitY=0.5;exitDx=0;exitDy=0;entryX=0.25;entryY=0;entryDx=0;entryDy=0;strokeWidth=1;strokeColor=#999999;dashPattern=2 4;" parent="1" source="attr-2" target="analysis-input" edge="1">
          <mxGeometry relative="1" as="geometry">
            <Array as="points">
              <mxPoint x="1050" y="350" />
              <mxPoint x="1050" y="830" />
            </Array>
          </mxGeometry>
        </mxCell>
        <mxCell id="rel-27" value="" style="endArrow=open;endSize=8;dashed=1;html=1;exitX=1;exitY=0.5;exitDx=0;exitDy=0;entryX=0.5;entryY=0;entryDx=0;entryDy=0;strokeWidth=1;strokeColor=#999999;dashPattern=2 4;" parent="1" source="attr-5" target="analysis-output" edge="1">
          <mxGeometry relative="1" as="geometry">
            <Array as="points">
              <mxPoint x="1120" y="787" />
            </Array>
          </mxGeometry>
        </mxCell>
        <mxCell id="rel-28" value="" style="endArrow=open;endSize=8;dashed=1;html=1;exitX=-0.006;exitY=0.55;exitDx=0;exitDy=0;entryX=0.899;entryY=0.016;entryDx=0;entryDy=0;strokeWidth=1;strokeColor=#999999;dashPattern=2 4;exitPerimeter=0;entryPerimeter=0;" parent="1" source="ice-strategy" target="analysis-input" edge="1">
          <mxGeometry relative="1" as="geometry">
            <Array as="points">
              <mxPoint x="1220" y="430" />
              <mxPoint x="1220" y="840" />
              <mxPoint x="890" y="900" />
            </Array>
          </mxGeometry>
        </mxCell>
        <mxCell id="rel-29" value="" style="endArrow=open;endSize=8;dashed=1;html=1;exitX=0;exitY=0.5;exitDx=0;exitDy=0;entryX=1;entryY=0.5;entryDx=0;entryDy=0;strokeWidth=1;strokeColor=#999999;dashPattern=2 4;" parent="1" source="ice-impact" target="analysis-input" edge="1">
          <mxGeometry relative="1" as="geometry">
            <Array as="points">
              <mxPoint x="1550" y="627" />
              <mxPoint x="1550" y="870" />
              <mxPoint x="1220" y="1140" />
              <mxPoint x="930" y="1180" />
            </Array>
          </mxGeometry>
        </mxCell>
        <mxCell id="ixEZU5qe94HeKBymWElp-4" value="" style="endArrow=open;endSize=12;dashed=1;html=1;exitX=1;exitY=0.5;exitDx=0;exitDy=0;entryX=0;entryY=0.5;entryDx=0;entryDy=0;strokeWidth=2;strokeColor=#F57C00;dashPattern=8 8;" edge="1" parent="1" source="sensitivity" target="attr-4">
          <mxGeometry relative="1" as="geometry">
            <Array as="points" />
            <mxPoint x="640" y="500" as="sourcePoint" />
            <mxPoint x="1260" y="345" as="targetPoint" />
          </mxGeometry>
        </mxCell>
        <mxCell id="attr-4" value="&lt;p style=&quot;margin:0px;margin-top:4px;text-align:center;&quot;&gt;&lt;i&gt;&amp;lt;&amp;lt;Attribute 4&amp;gt;&amp;gt;&lt;/i&gt;&lt;/p&gt;&lt;p style=&quot;margin:0px;margin-top:4px;text-align:center;&quot;&gt;&lt;b&gt;ICEHandlingAttribute&lt;/b&gt;&lt;/p&gt;&lt;hr size=&quot;1&quot;/&gt;&lt;p style=&quot;margin:0px;margin-left:4px;&quot;&gt;+ id: String&lt;/p&gt;&lt;p style=&quot;margin:0px;margin-left:4px;&quot;&gt;+ summary: String&lt;/p&gt;&lt;p style=&quot;margin:0px;margin-left:4px;&quot;&gt;+ strategyJustification: String&lt;/p&gt;&lt;p style=&quot;margin:0px;margin-left:4px;&quot;&gt;+ dataImplications: String&lt;/p&gt;&lt;p style=&quot;margin:0px;margin-left:4px;&quot;&gt;+ numberOfICEs: Integer&lt;/p&gt;" style="verticalAlign=top;align=left;overflow=fill;fontSize=11;fontFamily=Helvetica;html=1;fillColor=#FFCCCC;strokeColor=#CC0000;strokeWidth=2;" parent="1" vertex="1">
          <mxGeometry x="790" y="571.5" width="230" height="130" as="geometry" />
        </mxCell>
        <mxCell id="ixEZU5qe94HeKBymWElp-11" value="" style="endArrow=open;endSize=12;dashed=0;html=1;exitX=1;exitY=0.5;exitDx=0;exitDy=0;entryX=0;entryY=0.5;entryDx=0;entryDy=0;strokeWidth=2;strokeColor=#3949AB;" edge="1" parent="1" source="estimand">
          <mxGeometry x="-0.0461" y="30" relative="1" as="geometry">
            <Array as="points">
              <mxPoint x="680" y="570" />
              <mxPoint x="670" y="993" />
            </Array>
            <mxPoint x="630" y="590" as="sourcePoint" />
            <mxPoint x="950" y="1011" as="targetPoint" />
            <mxPoint as="offset" />
          </mxGeometry>
        </mxCell>
        <mxCell id="ixEZU5qe94HeKBymWElp-12" value="hasMainEstimator 1" style="edgeLabel;html=1;align=center;verticalAlign=middle;resizable=0;points=[];" vertex="1" connectable="0" parent="ixEZU5qe94HeKBymWElp-11">
          <mxGeometry x="-0.1191" y="-2" relative="1" as="geometry">
            <mxPoint x="85" y="297" as="offset" />
          </mxGeometry>
        </mxCell>
        <mxCell id="ixEZU5qe94HeKBymWElp-15" value="Text" style="text;html=1;align=center;verticalAlign=middle;whiteSpace=wrap;rounded=0;" vertex="1" parent="1">
          <mxGeometry x="730" y="290" width="60" height="30" as="geometry" />
        </mxCell>
        <mxCell id="ixEZU5qe94HeKBymWElp-16" value="&lt;font style=&quot;font-size: 9px;&quot;&gt;{if estimandRole=&#39;PRIMARY&#39;: ≥2}&lt;/font&gt;" style="text;html=1;align=center;verticalAlign=middle;resizable=0;points=[];autosize=1;strokeColor=none;fillColor=none;" vertex="1" parent="1">
          <mxGeometry x="150" y="440" width="160" height="30" as="geometry" />
        </mxCell>
        <mxCell id="ixEZU5qe94HeKBymWElp-17" value="List Item" style="text;strokeColor=none;fillColor=none;align=left;verticalAlign=middle;spacingLeft=4;spacingRight=4;overflow=hidden;points=[[0,0.5],[1,0.5]];portConstraint=eastwest;rotatable=0;whiteSpace=wrap;html=1;" vertex="1" parent="1">
          <mxGeometry x="720" y="290" width="80" height="30" as="geometry" />
        </mxCell>
        <mxCell id="ixEZU5qe94HeKBymWElp-18" value="&lt;font style=&quot;font-size: 8px;&quot;&gt;[constraint: analysisRole = &#39;MAIN&#39;]&lt;/font&gt;" style="text;html=1;align=center;verticalAlign=middle;resizable=0;points=[];autosize=1;strokeColor=none;fillColor=none;" vertex="1" parent="1">
          <mxGeometry x="691" y="995" width="140" height="30" as="geometry" />
        </mxCell>
        <mxCell id="ixEZU5qe94HeKBymWElp-19" value="&lt;font style=&quot;font-size: 8px;&quot;&gt;[constraint: analysisRole = &#39;SENSITIVITY&#39;]&lt;/font&gt;" style="text;html=1;align=center;verticalAlign=middle;resizable=0;points=[];autosize=1;strokeColor=none;fillColor=none;" vertex="1" parent="1">
          <mxGeometry x="641" y="1038" width="170" height="30" as="geometry" />
        </mxCell>
      </root>
    </mxGraphModel>
  </diagram>
</mxfile>
